<svg xmlns="http://www.w3.org/2000/svg" viewBox="0 0 800.000000 800.000000"><g transform="translate(0.000000,800.000000) scale(0.100000,-0.100000)"><g fill="#7ADD2C"><path d="M3955 7773 c-191 -10 -668 -83 -870 -132 -664 -164 -1341 -588 -1748
-1096 -394 -492 -612 -1055 -668 -1730 -16 -190 -6 -566 20 -761 81 -601 278
-1135 596 -1614 181 -272 364 -482 580 -664 240 -204 387 -301 640 -426 321
-158 635 -247 990 -280 143 -13 947 -13 1090 0 166 16 289 38 405 75 183 58
226 56 292 -13 19 -20 114 -152 211 -292 192 -279 249 -348 363 -439 156 -126
278 -164 524 -165 185 -1 215 5 308 62 171 103 294 228 367 373 53 107 70 196
62 329 -7 119 -34 216 -98 349 -58 122 -108 194 -218 316 -140 154 -211 277
-211 367 0 47 24 91 109 197 351 442 566 971 627 1551 19 188 15 558 -10 748
-125 956 -596 1868 -1266 2456 -536 471 -1137 734 -1794 786 -124 10 -168 10
-301 3z m103 -1534 c399 -43 787 -196 1122 -442 120 -88 337 -305 417 -417
260 -366 351 -758 268 -1165 -79 -390 -224 -816 -360 -1055 -215 -380 -423
-526 -850 -598 -238 -41 -984 -79 -1195 -62 -389 31 -671 149 -895 375 -245
245 -385 584 -426 1029 -28 302 12 842 82 1118 138 544 506 946 1031 1127 259
89 536 120 806 90z"/></g></g><g transform="translate(0.000000,800.000000) scale(0.100000,-0.100000)"><g fill="#D97452"><path d="M3882 5326 c-239 -46 -438 -152 -611 -327 -212 -214 -324 -475 -323
-759 0 -283 99 -473 354 -686 174 -145 264 -183 574 -241 180 -34 215 -37 369
-37 146 -1 182 3 254 22 256 69 409 219 481 472 31 108 38 328 16 473 -58 367
-210 696 -409 883 -98 92 -185 142 -312 179 -112 33 -283 42 -393 21z"/></g></g></svg>